# xmcd
#
# Track frame offsets: 
#        150
#        15486
#        29060
#        43731
#        59645
#        75278
#        92337
#        105895
#        121791
#        137455
#        153100
#        168164
#        182218
#
# Disc length: 2650 seconds
#
# Revision: 0
# Processed by: cddbd v1.5.2PL0 Copyright (c) Steve Scherf et al.
# Submitted via: ExactAudioCopy v0.95b4
#
DISCID=8f0a580d
DTITLE=Mike Dougherty - This-N-That
DYEAR=2009
DGENRE=Acoustic
TTITLE0=Phoenix Rising
TTITLE1=Shenandoah Sunset
TTITLE2=Roadstar Rag
TTITLE3=River's Edge
TTITLE4=Autumn Leaves
TTITLE5=Song For My Father
TTITLE6=Fade To Black
TTITLE7=The Last Train Ride
TTITLE8=Midnight Shuffle
TTITLE9=Good Morning, Mr. Blues
TTITLE10=Summer Rain
TTITLE11=Charlie's Dance
TTITLE12=Requiem For Rosie
EXTD=
EXTT0=
EXTT1=
EXTT2=
EXTT3=
EXTT4=
EXTT5=
EXTT6=
EXTT7=
EXTT8=
EXTT9=
EXTT10=
EXTT11=
EXTT12=
PLAYORDER=
